<svg xmlns="http://www.w3.org/2000/svg" fill='#CD1818' xmlns:xlink="http://www.w3.org/1999/xlink" version="1.0" x="0px" y="0px" viewBox="0 0 32 40" enable-background="new 0 0 32 32" xml:space="preserve"><g><path fill='#CD1818' d="M0,2v28c0,1.105,0.895,2,2,2h2V0H2C0.895,0,0,0.895,0,2z"/><path d="M30,0H6v32h24c1.105,0,2-0.895,2-2V2C32,0.895,31.105,0,30,0z M26,22v2H10v-2h0.004c0.039-2,0.801-3.461,5.852-5.621   C14.742,15.195,14,13.773,14,12c0-2.766,1.797-4,4.008-4S22,9.234,22,12c0,1.773-0.727,3.227-1.84,4.41   c5.051,2.16,5.812,3.59,5.855,5.59H26z"/></g></svg>