<svg width="48" height="48" viewBox="0 0 48 48" fill="white" xmlns="http://www.w3.org/2000/svg"><path fill-rule="evenodd" clip-rule="evenodd" d="M29.437 2.25207C26.4342 -0.750689 21.5658 -0.750693 18.563 2.25207L2.25207 18.563C-0.750689 21.5658 -0.750693 26.4342 2.25207 29.437L18.563 45.7479C21.5658 48.7507 26.4342 48.7507 29.437 45.7479L45.7479 29.437C48.7507 26.4342 48.7507 21.5658 45.7479 18.563L29.437 2.25207ZM39.3781 16.3453C39.3781 12.0987 35.9356 8.65624 31.6891 8.65624L16.3109 8.65624C12.0644 8.65624 8.62189 12.0987 8.62188 16.3453L8.62188 31.7234C8.62188 35.97 12.0644 39.4125 16.3109 39.4125H31.6891C35.9356 39.4125 39.3781 35.97 39.3781 31.7234V16.3453Z"></path><path d="M21.8252 10.9848C23.0263 9.78371 24.9737 9.78371 26.1748 10.9848L37.0488 21.8588C38.2499 23.0599 38.2499 25.0073 37.0488 26.2084L26.1748 37.0823C24.9737 38.2834 23.0263 38.2834 21.8252 37.0823L10.9512 26.2084C9.75013 25.0073 9.75013 23.0599 10.9512 21.8588L21.8252 10.9848Z"></path></svg>